<?xml version="1.0" encoding="UTF-8"?><svg id="a" xmlns="http://www.w3.org/2000/svg" viewBox="0 0 430.57 69.43"><defs><style>.b{fill:#6246ea;}.c{fill:#2b2c34;}</style></defs><path class="c" d="M49.33,20.03l-15.8,36.51h-8.34L9.43,20.03h9.13l11.11,26.08,11.27-26.08h8.4Z"/><path class="c" d="M51.15,38.28c0-10.85,8.45-18.88,19.98-18.88s19.98,7.98,19.98,18.88-8.5,18.88-19.98,18.88-19.98-8.03-19.98-18.88ZM82.55,38.28c0-6.94-4.9-11.68-11.42-11.68s-11.42,4.75-11.42,11.68,4.9,11.68,11.42,11.68,11.42-4.75,11.42-11.68Z"/><path class="c" d="M122.23,56.53l-7.04-10.17h-7.77v10.17h-8.45V20.03h15.8c9.75,0,15.85,5.06,15.85,13.25,0,5.48-2.76,9.49-7.51,11.53l8.19,11.73h-9.07ZM114.31,26.91h-6.88v12.73h6.88c5.16,0,7.77-2.4,7.77-6.36s-2.61-6.36-7.77-6.36Z"/><path class="c" d="M145.85,26.91h-11.68v-6.88h31.81v6.88h-11.68v29.62h-8.45v-29.62Z"/><path class="c" d="M200.3,49.75v6.78h-28.27V20.03h27.59v6.78h-19.19v7.93h16.95v6.57h-16.95v8.45h19.87Z"/><path class="c" d="M231.17,56.53l-8.81-12.67-8.66,12.67h-9.7l13.51-18.57-12.83-17.94h9.6l8.4,11.84,8.24-11.84h9.13l-12.73,17.63,13.61,18.88h-9.75Z"/><path class="b" d="M287.23,48.71h-16.95l-3.23,7.82h-8.66l16.27-36.51h8.34l16.32,36.51h-8.87l-3.23-7.82ZM284.57,42.3l-5.79-13.98-5.79,13.98h11.58Z"/><path class="b" d="M336.3,33.27c0,8.14-6.1,13.2-15.86,13.2h-7.35v10.07h-8.45V20.03h15.8c9.75,0,15.86,5.06,15.86,13.25ZM327.75,33.27c0-4.02-2.61-6.36-7.77-6.36h-6.88v12.67h6.88c5.16,0,7.77-2.35,7.77-6.31Z"/><path class="b" d="M372.08,49.75v6.78h-28.27V20.03h27.59v6.78h-19.19v7.93h16.95v6.57h-16.95v8.45h19.87Z"/><path class="b" d="M402.95,56.53l-8.81-12.67-8.66,12.67h-9.7l13.51-18.57-12.83-17.94h9.6l8.4,11.84,8.24-11.84h9.13l-12.73,17.63,13.61,18.88h-9.75Z"/></svg>